HIERARCHY
ROOT Hips
{
	OFFSET -0.001795 -0.223333 0.028219
	CHANNELS 6 Xposition Yposition Zposition Zrotation Yrotation Xrotation 
	JOINT LeftUpLeg
	{
		OFFSET 0.069520 -0.091406 -0.006815
		CHANNELS 3 Zrotation Yrotation Xrotation
		JOINT LeftLeg
		{
			OFFSET 0.034277 -0.375199 -0.004496
			CHANNELS 3 Zrotation Yrotation Xrotation
			JOINT LeftFoot
			{
				OFFSET -0.013596 -0.397961 -0.043693
				CHANNELS 3 Zrotation Yrotation Xrotation
				JOINT LeftToe
				{
					OFFSET 0.026358 -0.055791 0.119288
					CHANNELS 3 Zrotation Yrotation Xrotation
					End Site
					{
						OFFSET 0.000000 0.000000 0.000000
					}
				}
			}
		}
	}
	JOINT RightUpLeg
	{
		OFFSET -0.067670 -0.090522 -0.004320
		CHANNELS 3 Zrotation Yrotation Xrotation
		JOINT RightLeg
		{
			OFFSET -0.038290 -0.382569 -0.008850
			CHANNELS 3 Zrotation Yrotation Xrotation
			JOINT RightFoot
			{
				OFFSET 0.015774 -0.398415 -0.042312
				CHANNELS 3 Zrotation Yrotation Xrotation
				JOINT RightToe
				{
					OFFSET -0.025372 -0.048144 0.123348
					CHANNELS 3 Zrotation Yrotation Xrotation
					End Site
					{
						OFFSET 0.000000 0.000000 0.000000
					}
				}
			}
		}
	}
	JOINT Spine
	{
		OFFSET -0.002533 0.108963 -0.026696
		CHANNELS 3 Zrotation Yrotation Xrotation
		JOINT Spine1
		{
			OFFSET 0.005487 0.135180 0.001092
			CHANNELS 3 Zrotation Yrotation Xrotation
			JOINT Spine2
			{
				OFFSET 0.001457 0.052922 0.025425
				CHANNELS 3 Zrotation Yrotation Xrotation
				JOINT Neck
				{
					OFFSET -0.002778 0.213870 -0.042857
					CHANNELS 3 Zrotation Yrotation Xrotation
					JOINT Head
					{
						OFFSET 0.005152 0.064970 0.051349
						CHANNELS 3 Zrotation Yrotation Xrotation
						End Site
						{
							OFFSET 0.000000 0.000000 0.000000
						}
					}
				}
				JOINT LeftShoulder
				{
					OFFSET 0.078845 0.121749 -0.034090
					CHANNELS 3 Zrotation Yrotation Xrotation
					JOINT LeftArm
					{
						OFFSET 0.090977 0.030469 -0.008868
						CHANNELS 3 Zrotation Yrotation Xrotation
						JOINT LeftForeArm
						{
							OFFSET 0.259612 -0.012772 -0.027456
							CHANNELS 3 Zrotation Yrotation Xrotation
							JOINT LeftHand
							{
								OFFSET 0.249234 0.008986 -0.001171
								CHANNELS 3 Zrotation Yrotation Xrotation
								End Site
								{
									OFFSET 0.000000 0.000000 0.000000
								}
							}
						}
					}
				}
				JOINT RightShoulder
				{
					OFFSET -0.081759 0.118833 -0.038615
					CHANNELS 3 Zrotation Yrotation Xrotation
					JOINT RightArm
					{
						OFFSET -0.096012 0.032551 -0.009143
						CHANNELS 3 Zrotation Yrotation Xrotation
						JOINT RightForeArm
						{
							OFFSET -0.253742 -0.013329 -0.021401
							CHANNELS 3 Zrotation Yrotation Xrotation
							JOINT RightHand
							{
								OFFSET -0.255298 0.007772 -0.005559
								CHANNELS 3 Zrotation Yrotation Xrotation
								End Site
								{
									OFFSET 0.000000 0.000000 0.000000
								}
							}
						}
					}
				}
			}
		}
	}
}
MOTION
Frames: 6
Frame Time: 0.050000
0.000000 0.941833 0.000000 0.478314 -17.806935 9.751940 1.674649 -0.790626 -12.714848 1.660524 -0.129207 -2.149606 1.890334 5.344176 10.828174 0.000000 0.000000 0.000000 -4.774446 0.874767 -8.226133 -0.060572 -0.105335 -3.264507 -4.101988 -13.897116 10.219311 0.000000 0.000000 0.000000 6.515158 -0.331487 1.212166 -4.211994 1.729875 -4.305598 2.529444 12.689144 5.596206 10.834656 -6.325877 -10.588426 0.000000 0.000000 0.000000 -11.189437 -4.154077 0.480215 -48.927213 -13.411070 -0.405537 -52.583279 -40.007111 21.758817 0.000000 0.000000 0.000000 10.081103 6.042384 2.166117 49.778913 29.073400 7.293754 -0.177880 46.374579 2.111292 0.000000 0.000000 0.000000 
0.000624 0.941413 0.003290 -0.208390 -19.567640 10.772405 2.126813 -0.702497 -12.283364 1.724648 -0.111532 -2.779011 2.117518 5.524518 10.777430 0.000000 0.000000 0.000000 -3.614776 0.927372 -8.967173 -1.567311 -0.076640 -3.985230 -3.776629 -14.249809 12.510860 0.000000 0.000000 0.000000 6.971450 -0.272244 0.357191 -4.191537 1.638162 -5.337712 2.538403 14.297925 5.679861 12.150308 -7.428669 -9.598607 0.000000 0.000000 0.000000 -11.750882 -2.095739 -0.595156 -49.021051 -12.530605 -0.741160 -52.997062 -35.568901 19.202584 0.000000 0.000000 0.000000 9.403235 3.746824 1.213651 53.797252 25.376577 6.393983 1.336254 50.131934 3.205542 0.000000 0.000000 0.000000 
0.000881 0.940880 0.006145 0.342947 -18.953654 10.471079 1.572850 -0.761583 -11.977148 1.828711 -0.180839 -1.508168 2.468308 5.957936 8.008295 0.000000 0.000000 0.000000 -3.804958 0.900438 -8.664159 -2.873491 -0.046063 -4.311807 -3.516103 -13.824855 12.683740 0.000000 0.000000 0.000000 6.188817 -0.181973 -0.312293 -3.439680 1.348481 -4.965097 1.831729 13.761414 4.794724 11.086601 -6.951010 -8.331137 0.000000 0.000000 0.000000 -12.597571 -1.456330 -0.996281 -48.531487 -10.541756 -1.459624 -52.155535 -34.603299 18.290357 0.000000 0.000000 0.000000 11.676776 1.161421 -0.068942 53.302027 20.284015 3.956018 7.778505 54.519687 6.759150 0.000000 0.000000 0.000000 
0.000793 0.939765 0.008833 0.452371 -19.050109 11.019435 2.182105 -0.701480 -12.062433 1.068142 -0.077040 -1.796283 2.079983 5.249364 8.115634 0.000000 0.000000 0.000000 -4.055603 0.942726 -9.046440 -2.408321 -0.049427 -4.019863 -4.127861 -14.496449 11.544216 0.000000 0.000000 0.000000 5.795272 -0.106833 -1.086208 -3.212086 1.252416 -4.975344 1.688255 13.215465 4.792915 11.510608 -7.098633 -9.102784 0.000000 0.000000 0.000000 -12.408511 0.571339 -1.815194 -49.236897 -9.798515 -1.786354 -52.296530 -34.248392 18.290163 0.000000 0.000000 0.000000 11.676186 -2.135847 -1.710164 54.627899 15.487127 1.885072 17.667338 59.535732 13.044025 0.000000 0.000000 0.000000 
0.000582 0.939138 0.011152 0.646726 -18.198740 10.544280 1.974300 -0.729328 -11.912147 1.413537 -0.148566 -1.005477 1.170727 3.490093 6.809701 0.000000 0.000000 0.000000 -4.162684 0.874763 -8.288545 -2.420190 -0.050393 -4.082272 -3.588361 -13.265769 10.870675 0.000000 0.000000 0.000000 5.675649 -0.032682 -1.741906 -3.117615 1.255230 -4.301705 1.366705 11.676930 4.455227 11.101309 -6.930121 -8.766507 0.000000 0.000000 0.000000 -12.300854 1.232679 -1.961072 -50.051477 -9.021823 -2.120629 -50.660912 -34.100668 17.800364 0.000000 0.000000 0.000000 11.953385 -4.553161 -3.014250 55.457067 10.377213 -0.438809 27.564771 63.226222 19.930052 0.000000 0.000000 0.000000 
0.000284 0.938806 0.012852 0.628802 -17.450779 10.589123 2.264459 -0.715413 -12.083114 1.182288 -0.120176 -0.949600 0.447275 2.228382 6.960455 0.000000 0.000000 0.000000 -4.165228 0.827945 -7.735869 -2.407702 -0.073918 -4.598547 -3.747174 -13.421079 10.741037 0.000000 0.000000 0.000000 5.548761 0.026547 -2.336833 -2.780436 1.132300 -4.012232 0.897994 11.264111 4.354607 11.034821 -7.038704 -8.038258 0.000000 0.000000 0.000000 -12.597379 1.933504 -2.341341 -50.085160 -8.969398 -2.137618 -51.876234 -33.923951 18.130735 0.000000 0.000000 0.000000 11.834266 -6.427781 -3.858950 55.877069 5.973620 -2.466417 40.313300 65.985586 29.775797 0.000000 0.000000 0.000000 
